<svg xmlns="http://www.w3.org/2000/svg" viewBox="-11.2 -8.0 102.4 120.0"><defs><clipPath id="e"><path d="M39.9,9.3C44.2,9.3 49.9,12.4 53.0,13.9C56.1,15.5 56.8,16.9 58.4,18.5C60.0,20.0 61.2,21.6 62.4,23.1C63.6,24.6 64.6,26.1 65.6,27.6C66.5,29.2 67.4,30.8 68.2,32.3C69.0,33.8 69.7,35.3 70.3,36.8C71.0,38.3 71.7,39.9 72.3,41.5C72.8,43.0 73.3,44.6 73.8,46.1C74.2,47.6 74.6,49.1 74.9,50.6C75.3,52.2 75.6,53.8 75.8,55.3C76.1,56.8 76.2,58.3 76.3,59.8C76.4,61.3 76.4,62.9 76.3,64.5C76.2,66.0 76.0,67.6 75.7,69.1C75.4,70.6 74.9,72.1 74.4,73.6C73.8,75.2 73.1,76.8 72.3,78.3C71.4,79.8 70.5,81.3 69.3,82.8C68.1,84.3 66.7,85.9 65.0,87.5C63.2,89.0 62.9,90.5 58.7,92.0C54.5,93.5 45.9,96.6 39.7,96.6C33.5,96.6 25.4,93.5 21.3,92.0C17.2,90.5 16.8,89.0 15.0,87.5C13.3,85.9 11.9,84.3 10.7,82.8C9.5,81.3 8.6,79.8 7.7,78.3C6.9,76.8 6.2,75.2 5.6,73.6C5.1,72.1 4.8,70.6 4.5,69.1C4.2,67.6 4.0,66.0 3.9,64.5C3.7,62.9 3.7,61.3 3.7,59.8C3.8,58.3 3.9,56.8 4.2,55.3C4.4,53.8 4.7,52.2 5.1,50.6C5.4,49.1 5.8,47.6 6.2,46.1C6.7,44.6 7.2,43.0 7.7,41.5C8.3,39.9 9.0,38.3 9.7,36.8C10.3,35.3 11.0,33.8 11.8,32.3C12.6,30.8 13.5,29.2 14.4,27.6C15.4,26.1 16.4,24.6 17.6,23.1C18.8,21.6 20.1,20.0 21.6,18.5C23.1,16.9 23.8,15.5 26.8,13.9C29.9,12.4 35.5,9.3 39.9,9.3Z"/></clipPath></defs><path d="M39.8,0.0C45.0,0.0 51.8,3.7 55.5,5.5C59.2,7.4 60.0,9.1 61.9,10.9C63.8,12.7 65.3,14.6 66.7,16.5C68.1,18.3 69.3,20.0 70.4,21.8C71.6,23.7 72.7,25.6 73.6,27.4C74.6,29.2 75.3,30.9 76.1,32.8C76.9,34.6 77.7,36.5 78.4,38.3C79.1,40.2 79.7,42.0 80.2,43.8C80.7,45.7 81.2,47.4 81.6,49.2C82.0,51.0 82.4,53.0 82.7,54.8C82.9,56.6 83.1,58.3 83.2,60.2C83.3,62.0 83.3,63.8 83.2,65.7C83.1,67.5 82.9,69.4 82.5,71.2C82.1,73.1 81.6,74.8 80.9,76.6C80.2,78.4 79.4,80.3 78.4,82.2C77.4,84.0 76.3,85.7 74.9,87.5C73.4,89.4 71.8,91.3 69.7,93.1C67.6,94.9 67.3,96.6 62.3,98.5C57.3,100.3 47.1,104.0 39.6,104.0C32.2,104.0 22.6,100.3 17.7,98.5C12.8,96.6 12.4,94.9 10.3,93.1C8.2,91.3 6.6,89.4 5.1,87.5C3.7,85.7 2.6,84.0 1.6,82.2C0.6,80.3 -0.2,78.4 -0.9,76.6C-1.5,74.8 -2.0,73.1 -2.3,71.2C-2.7,69.4 -2.9,67.5 -3.0,65.7C-3.2,63.8 -3.3,62.0 -3.2,60.2C-3.1,58.3 -2.9,56.6 -2.7,54.8C-2.4,53.0 -2.0,51.0 -1.6,49.2C-1.2,47.4 -0.7,45.7 -0.2,43.8C0.3,42.0 0.9,40.2 1.6,38.3C2.3,36.5 3.1,34.6 3.9,32.8C4.7,30.9 5.4,29.2 6.4,27.4C7.3,25.6 8.4,23.7 9.6,21.8C10.7,20.0 11.9,18.3 13.3,16.5C14.7,14.6 16.3,12.7 18.1,10.9C19.9,9.1 20.7,7.4 24.3,5.5C27.9,3.7 34.6,0.0 39.8,0.0Z" fill="#fff" stroke="#0A0A0A" stroke-width="4"/><path d="M39.9,9.3C44.2,9.3 49.9,12.4 53.0,13.9C56.1,15.5 56.8,16.9 58.4,18.5C60.0,20.0 61.2,21.6 62.4,23.1C63.6,24.6 64.6,26.1 65.6,27.6C66.5,29.2 67.4,30.8 68.2,32.3C69.0,33.8 69.7,35.3 70.3,36.8C71.0,38.3 71.7,39.9 72.3,41.5C72.8,43.0 73.3,44.6 73.8,46.1C74.2,47.6 74.6,49.1 74.9,50.6C75.3,52.2 75.6,53.8 75.8,55.3C76.1,56.8 76.2,58.3 76.3,59.8C76.4,61.3 76.4,62.9 76.3,64.5C76.2,66.0 76.0,67.6 75.7,69.1C75.4,70.6 74.9,72.1 74.4,73.6C73.8,75.2 73.1,76.8 72.3,78.3C71.4,79.8 70.5,81.3 69.3,82.8C68.1,84.3 66.7,85.9 65.0,87.5C63.2,89.0 62.9,90.5 58.7,92.0C54.5,93.5 45.9,96.6 39.7,96.6C33.5,96.6 25.4,93.5 21.3,92.0C17.2,90.5 16.8,89.0 15.0,87.5C13.3,85.9 11.9,84.3 10.7,82.8C9.5,81.3 8.6,79.8 7.7,78.3C6.9,76.8 6.2,75.2 5.6,73.6C5.1,72.1 4.8,70.6 4.5,69.1C4.2,67.6 4.0,66.0 3.9,64.5C3.7,62.9 3.7,61.3 3.7,59.8C3.8,58.3 3.9,56.8 4.2,55.3C4.4,53.8 4.7,52.2 5.1,50.6C5.4,49.1 5.8,47.6 6.2,46.1C6.7,44.6 7.2,43.0 7.7,41.5C8.3,39.9 9.0,38.3 9.7,36.8C10.3,35.3 11.0,33.8 11.8,32.3C12.6,30.8 13.5,29.2 14.4,27.6C15.4,26.1 16.4,24.6 17.6,23.1C18.8,21.6 20.1,20.0 21.6,18.5C23.1,16.9 23.8,15.5 26.8,13.9C29.9,12.4 35.5,9.3 39.9,9.3Z" fill="none" stroke="#0A0A0A" stroke-width="2"/><g clip-path="url(#e)" stroke="#0A0A0A" stroke-width="3.4"><line x1="-3" y1="16.3" x2="83" y2="16.3"/><line x1="-3" y1="27.3" x2="83" y2="27.3"/><line x1="-3" y1="38.3" x2="83" y2="38.3"/><line x1="-3" y1="49.3" x2="83" y2="49.3"/><line x1="-3" y1="60.3" x2="83" y2="60.3"/><line x1="-3" y1="71.3" x2="83" y2="71.3"/><line x1="-3" y1="82.3" x2="83" y2="82.3"/></g></svg>